<svg aria-hidden="true" style="position: absolute; width: 0; height: 0; overflow: hidden;" version="1.1" xmlns="http://www.w3.org/2000/svg" xmlns:xlink="http://www.w3.org/1999/xlink">
<defs>
<symbol id="icon-arrow-hero-mob" viewBox="0 0 60 32">
<path fill="#1a75ff" style="fill: var(--color1, #1a75ff)" opacity="0.9" d="M56.123 0.174c-0.231-0.231-0.607-0.231-0.838 0l-3.771 3.771c-0.231 0.231-0.231 0.607 0 0.838s0.607 0.231 0.838 0l3.352-3.352 3.352 3.352c0.231 0.231 0.607 0.231 0.838 0s0.232-0.607 0-0.838l-3.771-3.771zM1.6 31.704c0.327 0 0.593-0.265 0.593-0.593s-0.265-0.593-0.593-0.593v1.185zM4.8 30.519c-0.327 0-0.593 0.265-0.593 0.593s0.265 0.593 0.593 0.593v-1.185zM8 31.704c0.327 0 0.593-0.265 0.593-0.593s-0.265-0.593-0.593-0.593v1.185zM11.2 30.519c-0.327 0-0.593 0.265-0.593 0.593s0.265 0.593 0.593 0.593v-1.185zM14.4 31.704c0.327 0 0.593-0.265 0.593-0.593s-0.265-0.593-0.593-0.593v1.185zM17.6 30.519c-0.327 0-0.593 0.265-0.593 0.593s0.265 0.593 0.593 0.593v-1.185zM20.8 31.704c0.327 0 0.593-0.265 0.593-0.593s-0.265-0.593-0.593-0.593v1.185zM24 30.519c-0.327 0-0.593 0.265-0.593 0.593s0.265 0.593 0.593 0.593v-1.185zM27.2 31.704c0.327 0 0.593-0.265 0.593-0.593s-0.265-0.593-0.593-0.593v1.185zM30.4 30.519c-0.327 0-0.593 0.265-0.593 0.593s0.265 0.593 0.593 0.593v-1.185zM33.907 31.63c0.326-0.025 0.57-0.31 0.545-0.637s-0.31-0.57-0.637-0.545l0.092 1.182zM37.398 29.885c-0.318 0.076-0.515 0.396-0.438 0.714s0.396 0.515 0.714 0.438l-0.276-1.153zM41.3 29.86c0.302-0.125 0.446-0.472 0.32-0.774s-0.472-0.446-0.774-0.32l0.454 1.095zM44.077 27.116c-0.279 0.171-0.366 0.536-0.195 0.815s0.536 0.366 0.815 0.195l-0.62-1.010zM47.78 25.883c0.249-0.213 0.278-0.587 0.065-0.835s-0.587-0.278-0.836-0.065l0.77 0.901zM49.574 22.417c-0.213 0.249-0.183 0.623 0.065 0.835s0.623 0.183 0.836-0.065l-0.901-0.77zM52.719 20.104c0.171-0.279 0.084-0.644-0.195-0.815s-0.644-0.084-0.815 0.195l1.010 0.62zM53.358 16.254c-0.125 0.302 0.018 0.649 0.32 0.774s0.649-0.018 0.774-0.32l-1.095-0.454zM55.63 13.081c0.076-0.318-0.12-0.638-0.438-0.714s-0.638 0.12-0.714 0.438l1.153 0.276zM55.041 9.223c-0.025 0.326 0.219 0.611 0.545 0.637s0.611-0.219 0.637-0.545l-1.182-0.092zM56.296 5.704c0-0.327-0.265-0.593-0.593-0.593s-0.593 0.265-0.593 0.593h1.185zM55.111 2.296c0 0.327 0.265 0.593 0.593 0.593s0.593-0.265 0.593-0.593h-1.185zM0 31.704h1.6v-1.185h-1.6v1.185zM4.8 31.704h3.2v-1.185h-3.2v1.185zM11.2 31.704h3.2v-1.185h-3.2v1.185zM17.6 31.704h3.2v-1.185h-3.2v1.185zM24 31.704h3.2v-1.185h-3.2v1.185zM30.4 31.704h1.6v-1.185h-1.6v1.185zM32 31.704c0.642 0 1.278-0.025 1.907-0.074l-0.092-1.182c-0.599 0.047-1.205 0.070-1.816 0.070v1.185zM37.674 31.038c1.249-0.299 2.461-0.694 3.627-1.178l-0.454-1.095c-1.109 0.46-2.261 0.836-3.448 1.12l0.276 1.153zM44.697 28.126c1.087-0.668 2.118-1.418 3.083-2.243l-0.77-0.901c-0.918 0.785-1.899 1.499-2.933 2.134l0.62 1.010zM50.475 23.187c0.825-0.965 1.576-1.996 2.243-3.083l-1.010-0.62c-0.635 1.034-1.349 2.015-2.134 2.933l0.901 0.77zM54.452 16.708c0.483-1.166 0.879-2.378 1.178-3.627l-1.153-0.276c-0.284 1.188-0.66 2.34-1.12 3.448l1.095 0.454zM56.223 9.315c0.049-0.63 0.074-1.266 0.074-1.907h-1.185c0 0.611-0.024 1.217-0.070 1.816l1.182 0.092zM56.296 7.407v-1.704h-1.185v1.704h1.185zM56.296 2.296v-1.704h-1.185v1.704h1.185zM56.123 0.174c-0.231-0.231-0.607-0.231-0.838 0l-3.771 3.771c-0.231 0.231-0.231 0.607 0 0.838s0.607 0.231 0.838 0l3.352-3.352 3.352 3.352c0.231 0.231 0.607 0.231 0.838 0s0.232-0.607 0-0.838l-3.771-3.771zM1.6 31.704c0.327 0 0.593-0.265 0.593-0.593s-0.265-0.593-0.593-0.593v1.185zM4.8 30.519c-0.327 0-0.593 0.265-0.593 0.593s0.265 0.593 0.593 0.593v-1.185zM8 31.704c0.327 0 0.593-0.265 0.593-0.593s-0.265-0.593-0.593-0.593v1.185zM11.2 30.519c-0.327 0-0.593 0.265-0.593 0.593s0.265 0.593 0.593 0.593v-1.185zM14.4 31.704c0.327 0 0.593-0.265 0.593-0.593s-0.265-0.593-0.593-0.593v1.185zM17.6 30.519c-0.327 0-0.593 0.265-0.593 0.593s0.265 0.593 0.593 0.593v-1.185zM20.8 31.704c0.327 0 0.593-0.265 0.593-0.593s-0.265-0.593-0.593-0.593v1.185zM24 30.519c-0.327 0-0.593 0.265-0.593 0.593s0.265 0.593 0.593 0.593v-1.185zM27.2 31.704c0.327 0 0.593-0.265 0.593-0.593s-0.265-0.593-0.593-0.593v1.185zM30.4 30.519c-0.327 0-0.593 0.265-0.593 0.593s0.265 0.593 0.593 0.593v-1.185zM33.907 31.63c0.326-0.025 0.57-0.31 0.545-0.637s-0.31-0.57-0.637-0.545l0.092 1.182zM37.398 29.885c-0.318 0.076-0.515 0.396-0.438 0.714s0.396 0.515 0.714 0.438l-0.276-1.153zM41.3 29.86c0.302-0.125 0.446-0.472 0.32-0.774s-0.472-0.446-0.774-0.32l0.454 1.095zM44.077 27.116c-0.279 0.171-0.366 0.536-0.195 0.815s0.536 0.366 0.815 0.195l-0.62-1.010zM47.78 25.883c0.249-0.213 0.278-0.587 0.065-0.835s-0.587-0.278-0.836-0.065l0.77 0.901zM49.574 22.417c-0.213 0.249-0.183 0.623 0.065 0.835s0.623 0.183 0.836-0.065l-0.901-0.77zM52.719 20.104c0.171-0.279 0.084-0.644-0.195-0.815s-0.644-0.084-0.815 0.195l1.010 0.62zM53.358 16.254c-0.125 0.302 0.018 0.649 0.32 0.774s0.649-0.018 0.774-0.32l-1.095-0.454zM55.63 13.081c0.076-0.318-0.12-0.638-0.438-0.714s-0.638 0.12-0.714 0.438l1.153 0.276zM55.041 9.223c-0.025 0.326 0.219 0.611 0.545 0.637s0.611-0.219 0.637-0.545l-1.182-0.092zM56.296 5.704c0-0.327-0.265-0.593-0.593-0.593s-0.593 0.265-0.593 0.593h1.185zM55.111 2.296c0 0.327 0.265 0.593 0.593 0.593s0.593-0.265 0.593-0.593h-1.185zM0 31.704h1.6v-1.185h-1.6v1.185zM4.8 31.704h3.2v-1.185h-3.2v1.185zM11.2 31.704h3.2v-1.185h-3.2v1.185zM17.6 31.704h3.2v-1.185h-3.2v1.185zM24 31.704h3.2v-1.185h-3.2v1.185zM30.4 31.704h1.6v-1.185h-1.6v1.185zM32 31.704c0.642 0 1.278-0.025 1.907-0.074l-0.092-1.182c-0.599 0.047-1.205 0.070-1.816 0.070v1.185zM37.674 31.038c1.249-0.299 2.461-0.694 3.627-1.178l-0.454-1.095c-1.109 0.46-2.261 0.836-3.448 1.12l0.276 1.153zM44.697 28.126c1.087-0.668 2.118-1.418 3.083-2.243l-0.77-0.901c-0.918 0.785-1.899 1.499-2.933 2.134l0.62 1.010zM50.475 23.187c0.825-0.965 1.576-1.996 2.243-3.083l-1.010-0.62c-0.635 1.034-1.349 2.015-2.134 2.933l0.901 0.77zM54.452 16.708c0.483-1.166 0.879-2.378 1.178-3.627l-1.153-0.276c-0.284 1.188-0.66 2.34-1.12 3.448l1.095 0.454zM56.223 9.315c0.049-0.63 0.074-1.266 0.074-1.907h-1.185c0 0.611-0.024 1.217-0.070 1.816l1.182 0.092zM56.296 7.407v-1.704h-1.185v1.704h1.185zM56.296 2.296v-1.704h-1.185v1.704h1.185z"></path>
</symbol>
<symbol id="icon-arrow-right" viewBox="0 0 34 32">
<path d="M21.333 13.173l-6.12-6.12c-0.25-0.248-0.588-0.388-0.94-0.388s-0.69 0.139-0.94 0.388c-0.125 0.124-0.224 0.271-0.292 0.434s-0.103 0.337-0.103 0.513c0 0.176 0.035 0.35 0.103 0.513s0.167 0.31 0.292 0.434l6.133 6.107c0.125 0.124 0.224 0.271 0.292 0.434s0.102 0.337 0.102 0.513-0.035 0.35-0.102 0.513c-0.068 0.162-0.167 0.31-0.292 0.434l-6.133 6.107c-0.251 0.249-0.393 0.588-0.394 0.942s0.138 0.694 0.387 0.945 0.588 0.393 0.942 0.394c0.354 0.001 0.694-0.138 0.945-0.387l6.12-6.12c0.749-0.75 1.17-1.767 1.17-2.827s-0.421-2.077-1.17-2.827z"></path>
</symbol>
<symbol id="icon-customer" viewBox="0 0 32 32">
<path fill="#1a75ff" style="fill: var(--color1, #1a75ff)" d="M31.485 17.165c0.049 1.181-0.372 2.334-1.171 3.206s-1.912 1.39-3.093 1.442c-0.069 0.003-0.138 0.005-0.207 0.005-0.314-0-0.627-0.034-0.933-0.101-0.91 1.405-2.103 2.604-3.503 3.521s-2.976 1.532-4.627 1.806c-0.195 0.574-0.585 1.061-1.101 1.378s-1.128 0.443-1.728 0.358c-0.6-0.086-1.151-0.378-1.558-0.828s-0.644-1.026-0.671-1.632c-0.027-0.605 0.159-1.201 0.525-1.684s0.889-0.823 1.479-0.961c0.59-0.138 1.21-0.066 1.752 0.205s0.973 0.722 1.218 1.276c2.325-0.43 4.424-1.662 5.934-3.481s2.332-4.111 2.326-6.474c0-5.585-4.543-10.128-10.128-10.128s-10.128 4.543-10.128 10.128c-0 1.727 0.441 3.425 1.282 4.933 0.029 0.050 0.050 0.103 0.064 0.159 0.081 0.226 0.073 0.474-0.024 0.694s-0.274 0.393-0.496 0.486c-0.542 0.228-1.125 0.346-1.713 0.346-0.069 0-0.139-0.002-0.208-0.005-1.181-0.053-2.293-0.572-3.091-1.443s-1.22-2.024-1.17-3.205c0.020-0.471 0.009-0.891-0.002-1.297-0.010-0.383-0.021-0.778-0.003-1.191 0.052-1.153 0.548-2.241 1.384-3.037s1.948-1.237 3.102-1.231c1.854-4.241 6.088-7.212 11.004-7.212s9.151 2.971 11.004 7.212c1.154-0.007 2.266 0.434 3.103 1.23s1.332 1.884 1.383 3.037c0.017 0.413 0.007 0.809-0.003 1.191-0.011 0.406-0.022 0.827-0.002 1.298zM23.863 15.199c-0 1.205-0.278 2.393-0.81 3.473s-1.306 2.024-2.261 2.759c-0.955 0.734-2.066 1.239-3.247 1.477s-2.401 0.2-3.565-0.109l-3.183 1.838c-0.161 0.093-0.345 0.136-0.53 0.124s-0.362-0.079-0.509-0.192c-0.147-0.113-0.257-0.267-0.317-0.442s-0.066-0.365-0.018-0.544l0.813-3.034c-1.347-1.456-2.096-3.366-2.099-5.349 0-4.337 3.527-7.865 7.863-7.865s7.863 3.528 7.863 7.865zM13.814 15.199c0-0.249-0.099-0.487-0.275-0.663s-0.414-0.275-0.663-0.275h-0.002c-0.185 0-0.366 0.056-0.52 0.159s-0.274 0.25-0.345 0.421c-0.071 0.171-0.089 0.36-0.053 0.542s0.126 0.349 0.257 0.479c0.131 0.131 0.298 0.22 0.48 0.256s0.37 0.017 0.541-0.054c0.171-0.071 0.318-0.191 0.421-0.345s0.158-0.335 0.158-0.521h-0zM16.937 15.199c-0-0.031-0.002-0.061-0.005-0.092s-0.008-0.061-0.014-0.091c-0.006-0.030-0.013-0.060-0.023-0.089s-0.019-0.058-0.030-0.087c-0.011-0.029-0.025-0.056-0.039-0.082s-0.030-0.053-0.047-0.079c-0.017-0.026-0.035-0.050-0.055-0.074s-0.040-0.047-0.062-0.068c-0.021-0.022-0.044-0.043-0.068-0.063-0.024-0.019-0.049-0.037-0.074-0.054s-0.052-0.033-0.079-0.047c-0.027-0.014-0.055-0.027-0.083-0.039s-0.057-0.022-0.086-0.031-0.119-0.031-0.18-0.036c-0.092-0.009-0.184-0.004-0.275 0.013-0.030 0.006-0.060 0.014-0.089 0.023s-0.058 0.019-0.086 0.031c-0.028 0.012-0.056 0.025-0.083 0.039s-0.053 0.030-0.079 0.047-0.051 0.036-0.074 0.054c-0.024 0.020-0.047 0.041-0.069 0.063s-0.043 0.044-0.062 0.068c-0.019 0.024-0.037 0.049-0.054 0.074s-0.033 0.052-0.047 0.079c-0.014 0.027-0.027 0.054-0.039 0.082s-0.022 0.057-0.031 0.087c-0.009 0.029-0.016 0.059-0.023 0.089s-0.011 0.061-0.014 0.091c-0.003 0.031-0.004 0.061-0.004 0.092s0.001 0.062 0.004 0.092c0.003 0.030 0.008 0.061 0.014 0.091s0.014 0.060 0.023 0.089c0.009 0.029 0.019 0.058 0.031 0.086s0.024 0.056 0.039 0.083c0.014 0.027 0.031 0.053 0.047 0.079s0.035 0.050 0.054 0.074c0.019 0.024 0.040 0.047 0.062 0.069s0.044 0.043 0.069 0.062c0.024 0.020 0.048 0.038 0.074 0.054s0.052 0.033 0.079 0.048c0.054 0.028 0.111 0.052 0.169 0.070 0.029 0.009 0.059 0.016 0.089 0.023 0.060 0.012 0.122 0.018 0.183 0.018 0.248-0.001 0.486-0.099 0.663-0.274 0.043-0.044 0.082-0.091 0.117-0.143 0.017-0.026 0.032-0.052 0.047-0.079s0.027-0.055 0.039-0.083c0.012-0.028 0.022-0.057 0.030-0.086s0.017-0.059 0.023-0.089c0.006-0.030 0.011-0.060 0.014-0.091s0.005-0.062 0.005-0.093l0 0zM20.062 15.199c0-0.249-0.099-0.487-0.275-0.663s-0.414-0.275-0.663-0.275h-0.002c-0.185 0-0.366 0.056-0.52 0.159s-0.274 0.25-0.345 0.421c-0.071 0.171-0.089 0.36-0.053 0.541s0.126 0.349 0.257 0.479c0.131 0.131 0.298 0.22 0.48 0.256s0.37 0.017 0.541-0.054c0.171-0.071 0.317-0.191 0.42-0.345s0.158-0.335 0.158-0.521z"></path>
</symbol>
<symbol id="icon-hero-box" viewBox="0 0 33 32">
<path fill="#1a75ff" style="fill: var(--color1, #1a75ff)" d="M14.309 2.208c1.524-0.704 3.283-0.704 4.808 0l8.72 4.030c0.89 0.411 1.637 1.033 2.195 1.789 0.141 0.192 0.062 0.458-0.153 0.561l-5.264 2.52c-0.111 0.053-0.24 0.053-0.351-0.001l-13.49-6.546c-0.304-0.148-0.3-0.58 0.007-0.722l3.529-1.631z"></path>
<path fill="#1a75ff" style="fill: var(--color1, #1a75ff)" d="M7.837 5.362c-0.109-0.053-0.236-0.054-0.346-0.003l-1.902 0.879c-0.923 0.426-1.693 1.079-2.257 1.874-0.137 0.193-0.055 0.456 0.159 0.557l13.044 6.141c0.11 0.052 0.237 0.051 0.347-0.001l4.499-2.154c0.303-0.145 0.304-0.573 0.002-0.72l-13.546-6.573z"></path>
<path fill="#1a75ff" style="fill: var(--color1, #1a75ff)" d="M2.858 10.584l12.619 5.941c0.141 0.066 0.23 0.207 0.23 0.362l-0 12.886c0 0.249-0.227 0.438-0.469 0.374-0.302-0.080-0.598-0.186-0.886-0.316l-8.72-3.943c-2.034-0.92-3.34-2.936-3.34-5.158v-9.353c0-0.168 0.007-0.334 0.022-0.499 0.023-0.262 0.305-0.406 0.544-0.293zM10.418 21.221c-0.507-0.227-1.102-0.002-1.33 0.502s-0.002 1.096 0.505 1.322l2.683 1.2c0.507 0.227 1.102 0.002 1.33-0.502s0.002-1.096-0.505-1.322l-2.683-1.2z"></path>
<path fill="#1a75ff" style="fill: var(--color1, #1a75ff)" d="M17.719 29.772c0 0.249 0.227 0.439 0.469 0.374 0.301-0.080 0.597-0.185 0.885-0.316l8.72-3.943c2.034-0.92 3.34-2.937 3.34-5.158v-9.353c0-0.204-0.011-0.407-0.033-0.607-0.028-0.26-0.309-0.399-0.546-0.286l-12.608 6.035c-0.139 0.067-0.228 0.207-0.228 0.36l-0 12.893z"></path>
</symbol>
<symbol id="icon-logo" viewBox="0 0 38 32">
<path fill="#e1e4f2" style="fill: var(--color2, #e1e4f2)" d="M34.51 16c0 8.561-7.023 15.502-15.686 15.502s-15.686-6.94-15.686-15.502c0-8.561 7.023-15.502 15.686-15.502s15.686 6.94 15.686 15.502z"></path>
<path fill="#1a75ff" style="fill: var(--color1, #1a75ff)" d="M29.556 22.614c-0.356 0.069-7.263 1.305-10.733-3.187-2.759 3.541-7.648 3.652-10.679 3.2-8.816-2.424-8.137-11.641-8.13-11.73 0.010-0.137 0.060-0.267 0.145-0.373s0.198-0.185 0.326-0.224c0.128-0.040 0.264-0.040 0.392-0.001s0.242 0.116 0.327 0.221c0.020 0.027 2.212 2.74 5.044 2.843 1.574 0.068 3.11-0.74 4.492-2.259 1.674-1.359 5.573-2.393 8.083 0.851 0.855-1.112 2.080-1.865 3.443-2.115 1.647-0.187 3.303 0.264 4.64 1.264 1.382 1.519 2.918 2.328 4.492 2.259 2.831-0.103 5.023-2.816 5.043-2.843 0.086-0.103 0.2-0.179 0.327-0.217s0.263-0.037 0.39 0.004c0.127 0.040 0.239 0.118 0.323 0.223s0.136 0.233 0.149 0.368c0.007 0.089 0.686 9.306-8.076 11.716z"></path>
</symbol>
<symbol id="icon-tg" viewBox="0 0 32 32">
<path fill="#f9f9f9" style="fill: var(--color3, #f9f9f9)" d="M16 0c-8.836 0-16 7.164-16 16s7.164 16 16 16c8.836 0 16-7.164 16-16s-7.164-16-16-16zM23.416 10.881c-0.241 2.53-1.283 8.669-1.813 11.503-0.224 1.199-0.666 1.601-1.094 1.641-0.929 0.086-1.634-0.614-2.534-1.204-1.408-0.923-2.204-1.498-3.571-2.398-1.58-1.041-0.556-1.613 0.344-2.548 0.236-0.245 4.329-3.969 4.409-4.306 0.010-0.043 0.019-0.2-0.074-0.283s-0.232-0.054-0.331-0.032c-0.141 0.032-2.391 1.519-6.749 4.461-0.639 0.439-1.217 0.652-1.736 0.641-0.571-0.012-1.67-0.323-2.487-0.589-1.002-0.326-1.798-0.498-1.729-1.051 0.036-0.288 0.433-0.583 1.19-0.884 4.664-2.032 7.774-3.372 9.331-4.019 4.444-1.848 5.367-2.169 5.969-2.18 0.754-0.013 0.936 0.609 0.874 1.249z"></path>
</symbol>
<symbol id="icon-back" viewBox="0 0 32 32">
<path fill="#082859" style="fill: var(--color4, #082859)" d="M14.609 16.472c-0.062-0.062-0.111-0.135-0.145-0.217s-0.051-0.168-0.051-0.255 0.017-0.175 0.051-0.255c0.034-0.081 0.083-0.155 0.145-0.217l6.115-6.113c0.375-0.375 0.586-0.884 0.586-1.414s-0.21-1.039-0.585-1.414c-0.375-0.375-0.884-0.586-1.414-0.586s-1.039 0.21-1.415 0.585l-6.115 6.115c-0.874 0.876-1.364 2.063-1.364 3.3s0.491 2.424 1.364 3.3l6.115 6.115c0.375 0.375 0.884 0.586 1.415 0.585s1.039-0.211 1.414-0.586c0.375-0.375 0.586-0.884 0.585-1.415s-0.211-1.039-0.586-1.414l-6.115-6.113z"></path>
</symbol>
<symbol id="icon-tg-soc" viewBox="0 0 32 32">
<path d="M28.622 3.654c-4.011 1.661-21.206 8.784-25.958 10.725-3.187 1.243-1.321 2.409-1.321 2.409s2.72 0.933 5.052 1.632c2.332 0.7 3.575-0.078 3.575-0.078l10.958-7.383c3.886-2.642 2.953-0.466 2.021 0.466-2.021 2.021-5.363 5.207-8.16 7.772-1.244 1.088-0.622 2.021-0.078 2.487 2.021 1.71 7.539 5.207 7.85 5.44 1.642 1.162 4.871 2.835 5.363-0.7l1.943-12.202c0.622-4.119 1.244-7.927 1.321-9.015 0.233-2.642-2.565-1.554-2.565-1.554z"></path>
</symbol>
<symbol id="icon-tik" viewBox="0 0 28 32">
<path d="M27.054 7.029c-3.359 0-6.091-2.733-6.091-6.092 0-0.518-0.42-0.938-0.938-0.938h-5.021c-0.518 0-0.938 0.42-0.938 0.938v20.585c0 1.975-1.607 3.581-3.581 3.581s-3.581-1.607-3.581-3.581c0-1.975 1.607-3.581 3.581-3.581 0.518 0 0.938-0.42 0.938-0.938v-5.021c0-0.518-0.42-0.938-0.938-0.938-5.777 0-10.477 4.7-10.477 10.477s4.7 10.477 10.477 10.477c5.777 0 10.477-4.7 10.477-10.477v-9.112c1.866 0.995 3.942 1.514 6.092 1.514 0.518 0 0.938-0.42 0.938-0.938v-5.021c-0-0.518-0.42-0.938-0.938-0.938z"></path>
</symbol>
<symbol id="icon-youtube" viewBox="0 0 43 32">
<path d="M41.004 3.565c-1.54-1.831-4.384-2.578-9.814-2.578h-19.713c-5.555 0-8.447 0.795-9.981 2.744-1.496 1.9-1.496 4.701-1.496 8.576v7.387c0 7.508 1.775 11.32 11.477 11.32h19.713c4.709 0 7.319-0.659 9.007-2.275 1.731-1.657 2.47-4.362 2.47-9.045v-7.387c0-4.087-0.116-6.904-1.663-8.743zM27.392 17.020l-8.951 4.678c-0.2 0.105-0.419 0.156-0.637 0.156-0.247 0-0.494-0.067-0.713-0.199-0.412-0.25-0.663-0.696-0.663-1.177v-9.327c0-0.481 0.251-0.927 0.662-1.176s0.922-0.267 1.349-0.045l8.951 4.648c0.455 0.236 0.741 0.707 0.742 1.22s-0.284 0.984-0.739 1.222z"></path>
</symbol>
<symbol id="icon-rocket" viewBox="0 0 32 32">
<path fill="#fbfbfb" style="fill: var(--color5, #fbfbfb)" d="M30.493 0.943c-7.144-0.736-14.112 2.686-18.405 8.281-2.204 2.866-3.701 6.298-4.157 10.043l4.238 4.238c3.745-0.456 7.177-1.953 10.043-4.157 5.595-4.293 9.017-11.261 8.281-18.405zM19.078 12.358c-1.302-1.302-1.302-3.414 0-4.716s3.414-1.302 4.716-0c1.302 1.302 1.302 3.414 0 4.716s-3.414 1.302-4.716-0z"></path>
<path fill="#fbfbfb" style="fill: var(--color5, #fbfbfb)" d="M8.819 18.379c-2.007-0.568-4.132-0.452-6.35 0.199 1.151-6.162 5.172-9.175 10.507-10.242 0.465 3.736-0.837 7.232-4.157 10.043z"></path>
<path fill="#fbfbfb" style="fill: var(--color5, #fbfbfb)" d="M13.057 22.617c0.568 2.007 0.452 4.132-0.199 6.35 6.162-1.152 9.175-5.172 10.242-10.507-3.736-0.465-7.232 0.837-10.043 4.157z"></path>
<path fill="#fbfbfb" style="fill: var(--color5, #fbfbfb)" d="M7.673 28.479c-1.747 1.747-6.258 1.541-6.258 1.541s-0.206-4.51 1.541-6.258c0.997-0.997 1.987-1.302 2.895-1.144-1.115 1.151-1.030 3.995-1.030 3.995s2.844 0.085 3.995-1.030c0.158 0.909-0.147 1.898-1.144 2.895z"></path>
</symbol>
</defs>
</svg>
